<?xml version="1.0" encoding="utf-8"?>
<!-- Generator: Adobe Illustrator 19.0.0, SVG Export Plug-In . SVG Version: 6.00 Build 0)  -->
<svg version="1.1" id="Layer_1" xmlns="http://www.w3.org/2000/svg" xmlns:xlink="http://www.w3.org/1999/xlink" x="0px" y="0px"
	 viewBox="0 0 241.4 191.6" style="enable-background:new 0 0 241.4 191.6;" xml:space="preserve">
<style type="text/css">
	.st0{fill:#895F3D;}
</style>
<g>
	<path class="st0" d="M209.5,179.8c-0.6-0.1-1.2-0.1-1.8-0.2l0.3-2.2c0.6,0.1,1.2,0.1,1.8,0.2c2.8,0.3,5.7,0.6,8.5,0.8l-0.2,2.2
		C215.2,180.3,212.3,180.1,209.5,179.8 M197.4,178.1c-3.4-0.5-6.8-1.2-10.2-1.9l0.4-2.2c3.4,0.7,6.8,1.3,10.1,1.8L197.4,178.1z
		 M177,174c-3.3-0.8-6.7-1.7-10-2.7l0.6-2.1c3.3,1,6.6,1.9,9.9,2.7L177,174z M157.1,168.2c-3.3-1.1-6.6-2.3-9.8-3.6l0.8-2.1
		c3.2,1.2,6.4,2.4,9.7,3.5L157.1,168.2z M137.7,160.6c-3.2-1.4-6.3-2.8-9.4-4.4l1-2c3.1,1.5,6.2,3,9.4,4.3L137.7,160.6z M119,151.5
		c-3-1.6-6.1-3.4-9-5.1l1.1-1.9c2.9,1.8,5.9,3.5,9,5.1L119,151.5z M101.1,140.9c-2.9-1.9-5.8-3.9-8.6-5.9l1.3-1.8
		c2.8,2,5.6,4,8.5,5.8L101.1,140.9z M84.3,128.7c-0.7-0.6-1.4-1.1-2.2-1.7c-2-1.6-3.9-3.2-5.9-4.9l1.4-1.7c1.9,1.6,3.9,3.3,5.8,4.8
		c0.7,0.6,1.4,1.1,2.1,1.7L84.3,128.7z M68.5,115.1c-2.5-2.4-5-4.8-7.4-7.3l1.6-1.5c2.4,2.4,4.9,4.9,7.3,7.2L68.5,115.1z M54,100.2
		c-2.3-2.6-4.6-5.2-6.8-7.9l1.7-1.4c2.2,2.6,4.4,5.3,6.7,7.8L54,100.2z M40.8,84.1c-2.1-2.8-4.1-5.6-6.1-8.4l1.8-1.3
		c1.9,2.8,4,5.6,6,8.4L40.8,84.1z M29.1,67c-1.8-2.9-3.6-5.9-5.3-8.9l1.9-1.1c1.7,3,3.5,5.9,5.3,8.8L29.1,67z M18.8,49
		c-1.6-3.1-3.1-6.2-4.6-9.3l2-0.9c1.4,3.1,3,6.2,4.5,9.3L18.8,49z M10,30.1c-1.3-3.2-2.6-6.5-3.8-9.7l2.1-0.8
		c1.2,3.2,2.4,6.4,3.7,9.6L10,30.1z M2.9,10.6c-1-3.3-2-6.7-2.9-10L2.1,0C3,3.3,4,6.6,5,9.9L2.9,10.6z"/>
	<polygon class="st0" points="240.4,179.8 220.4,170.2 223,179.5 220.4,189.4 	"/>
	<path class="st0" d="M222.2,179.5c0,0-3.3-2.2-3.4-5.3c-0.1-3.9,3.2-6.4,6.8-6.5c3.5,0,7,3.1,8.9,5.1c4.2,4.2,5.5,6.1,6.9,7.5
		c-1.5,1.3-2.9,3.1-7.4,6.9c-2.1,1.8-5.8,4.7-9.3,4.4c-3.6-0.3-6.6-3.1-6.3-7C218.7,181.4,222.2,179.5,222.2,179.5"/>
</g>
<g id="XMLID_53_">
</g>
<g id="XMLID_54_">
</g>
<g id="XMLID_55_">
</g>
<g id="XMLID_56_">
</g>
<g id="XMLID_57_">
</g>
<g id="XMLID_58_">
</g>
</svg>
